<svg width="75" height="71" viewBox="0 0 75 71" fill="none" xmlns="http://www.w3.org/2000/svg">
<path d="M74.1497 47.0429C73.8564 45.168 72.5625 43.8705 70.6895 43.7295C69.137 43.6125 67.5709 43.635 66.0154 43.725C64.5763 43.809 63.5408 44.5665 62.9074 45.8564C62.8726 45.9269 62.8817 46.0499 62.7653 46.0439C62.7653 43.6725 62.7653 41.307 62.7653 38.8516C63.5468 40.6171 64.859 41.3595 66.6821 41.316C67.9503 41.286 69.2217 41.337 70.49 41.298C72.0772 41.25 73.2019 40.4686 73.8353 39.0256C74.2253 38.1376 74.2979 37.2031 74.1573 36.2477C73.8761 34.3337 72.5428 33.0002 70.6109 32.8862C69.0992 32.7962 67.5739 32.8187 66.0608 32.8862C64.5869 32.9522 63.5287 33.7232 62.8938 35.0537C62.8651 35.1137 62.8696 35.2247 62.7305 35.1977C62.7305 33.9797 62.7351 32.7617 62.726 31.5438C62.7245 31.3248 62.8046 31.2633 63.0147 31.2663C63.6073 31.2768 64.2014 31.2603 64.794 31.2738C65.0646 31.2798 65.2097 31.2198 65.19 30.9153C65.1704 30.6018 65.2006 30.2853 65.181 29.9718C65.1643 29.6928 65.252 29.5698 65.5498 29.5893C65.8658 29.6103 66.1847 29.5938 66.5022 29.5938C68.8619 29.5938 71.2216 29.5938 73.5813 29.5938C73.7975 29.5938 74.0288 29.6418 74.0242 29.2848C74.0122 28.0113 74.0167 26.7379 74.0212 25.4644C74.0227 25.2529 73.9426 25.1734 73.7295 25.1764C73.1082 25.1854 72.4869 25.1884 71.8671 25.1749C71.601 25.1689 71.5345 25.2889 71.5436 25.5214C71.5542 25.8079 71.5391 26.0959 71.5481 26.3839C71.5542 26.5864 71.4892 26.6779 71.267 26.6779C69.335 26.6719 67.4031 26.6719 65.4712 26.6779C65.252 26.6779 65.1795 26.5954 65.1855 26.3884C65.1946 26.0599 65.1734 25.7299 65.1916 25.4029C65.2067 25.1194 65.1054 25.0219 64.8136 25.0264C63.9308 25.0429 63.048 25.0309 62.1637 25.0309C41.741 25.0309 21.3183 25.0309 0.895618 25.0309C0.798871 25.0309 0.700613 25.0414 0.605377 25.0294C0.328741 24.9949 0.218389 25.0849 0.225948 25.3849C0.247111 26.1094 0.238041 26.8353 0.228971 27.5613C0.225948 27.7518 0.29095 27.8958 0.404325 28.0458C0.918293 28.7223 1.46854 29.3778 1.79657 30.1728C2.24252 31.2543 2.57962 32.3702 2.85928 33.6272C2.99835 33.1007 3.08905 32.6792 3.21906 32.2697C3.59849 31.0713 4.06862 29.9178 5.13283 29.1348C6.21821 28.3353 7.50011 27.9888 8.77899 27.6513C10.268 27.2598 11.7645 26.9058 13.1916 26.3104C14.0774 25.9414 14.9632 25.5574 15.899 25.3174C17.0554 25.0204 17.9473 25.8004 17.7991 26.9763C17.7296 27.5328 17.6117 28.0788 17.4741 28.6233C17.1869 29.7483 16.8604 30.8628 16.7001 32.0177C16.5021 33.4517 16.4114 34.9007 16.1061 36.3181C15.9564 37.0156 15.7523 37.6936 15.3321 38.2876C14.4976 39.4666 13.3019 40.1401 11.9928 40.6591C11.7933 40.7386 11.568 40.7701 11.3806 40.9351C12.5551 41.0535 13.6995 41.148 14.7985 41.4585C16.1106 41.829 17.27 42.5205 18.366 43.314C18.9677 43.749 19.5663 44.1915 20.0319 44.781C20.2662 45.078 20.4128 45.3525 20.0969 45.7199C18.3584 47.7389 16.2104 48.9554 13.5014 49.0919C12.5385 49.1399 11.5726 49.1519 10.6081 49.1789C9.46226 49.2104 8.91806 49.5764 8.52654 50.6428C8.32851 51.1798 8.18036 51.7363 8.03676 52.2898C7.97629 52.5238 7.89163 52.6948 7.6407 52.8013C7.77826 52.8013 7.91582 52.8013 8.05338 52.8013C26.1027 52.8013 44.1521 52.8013 62.2 52.8013C62.2695 52.8013 62.339 52.7938 62.407 52.8028C62.6565 52.8358 62.7426 52.7413 62.7381 52.4833C62.723 51.6763 62.7305 50.8678 62.7351 50.0594C62.7351 49.9664 62.6928 49.8524 62.8001 49.7654C63.5484 51.4333 64.8333 52.1938 66.6473 52.1488C67.9292 52.1173 69.2141 52.1638 70.4975 52.1368C71.8021 52.1098 72.8376 51.5473 73.536 50.4418C74.1936 49.3964 74.3372 48.2429 74.1497 47.0429ZM66.4704 35.7152C67.1038 35.7077 67.7372 35.7137 68.3721 35.7137C68.9919 35.7137 69.6117 35.7062 70.2315 35.7152C71.0281 35.7257 71.5013 36.2326 71.5058 37.0636C71.5103 37.9261 71.0447 38.4736 70.2511 38.4841C68.9843 38.5006 67.716 38.5006 66.4493 38.4841C65.633 38.4736 65.1447 37.9036 65.1658 37.0426C65.1855 36.2207 65.6662 35.7257 66.4704 35.7152ZM28.8797 46.0154C27.6794 46.0109 26.4791 46.0124 25.2789 46.0124C24.0786 46.0124 22.8783 46.0049 21.6781 46.0169C21.3773 46.0199 21.2639 45.9299 21.2699 45.6194C21.2866 44.6895 21.2896 43.758 21.2684 42.828C21.2609 42.489 21.3954 42.405 21.7053 42.42C22.118 42.4395 22.5337 42.414 22.9464 42.429C23.1852 42.4365 23.2502 42.345 23.2502 42.117C23.2442 39.5716 23.2427 37.0261 23.2517 34.4807C23.2517 34.2317 23.1792 34.1417 22.9237 34.1537C22.5382 34.1717 22.1512 34.1507 21.7658 34.1612C21.5435 34.1672 21.4362 34.0982 21.4377 33.8597C21.4438 32.8742 21.4438 31.8887 21.4377 30.9033C21.4362 30.6753 21.5239 30.5868 21.7537 30.5868C24.1119 30.5913 26.4716 30.5913 28.8298 30.5883C29.0384 30.5883 29.1246 30.6663 29.1231 30.8793C29.117 31.8782 29.1155 32.8772 29.1231 33.8762C29.1246 34.0952 29.0293 34.1627 28.8238 34.1597C28.4232 34.1522 28.0241 34.1672 27.6235 34.1552C27.3952 34.1477 27.3091 34.2197 27.3091 34.4567C27.3151 37.0156 27.3166 39.5761 27.3091 42.135C27.3091 42.384 27.4194 42.4335 27.6341 42.429C28.0755 42.42 28.5169 42.435 28.9583 42.4245C29.1911 42.4185 29.2727 42.507 29.2712 42.7365C29.2636 43.722 29.2606 44.7075 29.2727 45.6929C29.2773 45.9929 29.114 46.0169 28.8797 46.0154ZM46.0629 31.0338C46.0477 31.2138 46.0145 31.3833 45.9419 31.5482C43.8407 36.3226 41.741 41.0955 39.6458 45.8729C39.5506 46.0904 39.4372 46.1924 39.1893 46.1804C38.7086 46.1564 38.1462 46.3094 37.7653 46.1099C37.3813 45.9089 37.3163 45.3015 37.1243 44.868C35.1577 40.4536 33.197 36.0377 31.2349 31.6217C31.191 31.5213 31.1381 31.4238 31.1109 31.3188C30.9628 30.7368 31.0777 30.5898 31.6778 30.5898C32.671 30.5898 33.6641 30.6003 34.6573 30.5838C34.9385 30.5793 35.0654 30.6753 35.1713 30.9303C36.2325 33.4982 37.3073 36.0602 38.3775 38.6236C38.444 38.7826 38.5136 38.9416 38.6133 39.1756C38.9444 38.3686 39.2452 37.6366 39.5445 36.9046C40.3503 34.9277 41.1605 32.9522 41.9526 30.9693C42.066 30.6843 42.2081 30.5748 42.5225 30.5808C43.5565 30.6003 44.592 30.6018 45.626 30.5808C45.9842 30.5748 46.0916 30.7038 46.0629 31.0338ZM61.7978 31.5138C61.3141 32.2622 60.847 33.0212 60.3723 33.7757C59.2492 35.5637 58.1305 37.3546 56.9998 39.1366C56.8244 39.4141 56.7398 39.6871 56.7428 40.0186C56.7564 41.8665 56.7398 43.7145 56.7564 45.561C56.7594 45.9224 56.6551 46.0334 56.2893 46.0259C55.2281 46.0034 54.1654 46.0064 53.1027 46.0244C52.7611 46.0304 52.6537 45.9254 52.6553 45.5835C52.6704 43.7085 52.6583 41.8335 52.6674 39.9586C52.6689 39.6736 52.6039 39.4321 52.4512 39.1891C50.876 36.6826 49.3084 34.1702 47.7378 31.6592C47.6864 31.5782 47.6274 31.5003 47.5851 31.4148C47.3296 30.8973 47.5171 30.5913 48.0855 30.5898C49.2298 30.5898 50.3757 30.5988 51.52 30.5838C51.8102 30.5793 51.9584 30.6813 52.0929 30.9318C52.9379 32.4977 53.8011 34.0532 54.7051 35.6957C55.4458 34.3487 56.2228 33.1157 56.8169 31.7987C57.2598 30.8178 57.8388 30.4293 58.9136 30.5703C59.6996 30.6723 60.5114 30.5838 61.3111 30.5943C61.5076 30.5973 61.7963 30.4863 61.881 30.6918C61.9898 30.9453 61.9702 31.2453 61.7978 31.5138ZM70.2572 49.3214C69.6102 49.3409 68.9617 49.3259 68.3147 49.3259C67.7085 49.3259 67.1023 49.3349 66.4961 49.3244C65.6435 49.3079 65.1477 48.7649 65.1643 47.8859C65.181 47.0474 65.6677 46.5584 66.5052 46.5539C67.7448 46.5479 68.9843 46.5464 70.2239 46.5539C71.0251 46.5584 71.4967 47.0639 71.5043 47.8949C71.5134 48.7589 71.0538 49.2989 70.2572 49.3214Z" fill="#3E81C3"/>
<path d="M0.265264 50.1779C0.233519 50.9878 0.236542 51.7738 0.230496 52.5613C0.228984 52.7353 0.290963 52.8028 0.46934 52.8028C1.55019 52.7983 2.62952 52.7998 3.71036 52.7998C2.15637 52.4473 1.01808 51.5743 0.265264 50.1779Z" fill="#3E81C3"/>
<path d="M35.7987 55.6052C36.5274 55.6052 37.0957 56.1811 37.0957 57.1021C37.0957 58.0231 36.5213 58.6096 35.7987 58.6096C35.3664 58.6096 35.055 58.4161 34.8917 58.1596V58.5676H33.9893V54.6947H34.8917V56.0611C35.055 55.7986 35.377 55.6052 35.7987 55.6052ZM35.5296 56.3851C35.1925 56.3851 34.8857 56.6416 34.8857 57.1081C34.8857 57.5746 35.191 57.8311 35.5296 57.8311C35.8728 57.8311 36.1782 57.5686 36.1782 57.1036C36.1782 56.6356 35.8728 56.3851 35.5296 56.3851Z" fill="#15273F"/>
<path d="M39.4901 55.6467H40.4667L38.6209 59.9546H37.6504L38.3261 58.4681L37.1289 55.6467H38.1357L38.8159 57.4737L39.4901 55.6467Z" fill="#15273F"/>
<path d="M45.6244 67.9434C45.3191 67.9434 45.0137 67.8834 44.725 67.7649C44.3123 67.5955 43.9616 67.318 43.7091 66.964C43.4385 66.583 43.2949 66.1255 43.2949 65.6425V55.1982C43.2949 55.0107 43.4476 54.8592 43.6366 54.8592C43.8255 54.8592 43.9782 55.0107 43.9782 55.1982V65.6425C43.9782 65.9845 44.078 66.307 44.2669 66.5725C44.4438 66.8215 44.6932 67.018 44.985 67.138C45.2767 67.258 45.5927 67.294 45.895 67.2415C46.2185 67.186 46.5193 67.0285 46.7627 66.787L50.7399 62.8406C50.8729 62.7086 51.0891 62.7086 51.2236 62.8406C51.3567 62.9725 51.3567 63.187 51.2236 63.3205L47.2464 67.267C46.9018 67.609 46.4755 67.8309 46.0129 67.9104C45.8859 67.9314 45.7544 67.9434 45.6244 67.9434Z" fill="#4080BE"/>
<g opacity="0.3">
<g opacity="0.3">
<g opacity="0.3">
<g opacity="0.3">
<g opacity="0.3">
<path opacity="0.3" d="M46.2288 67.8264C46.002 67.7334 45.81 67.5819 45.6725 67.3884C45.6438 67.3479 45.6181 67.3074 45.5954 67.2639C45.3883 67.2609 45.1827 67.2174 44.9862 67.1364C44.9227 67.1109 44.8607 67.0809 44.8018 67.0479C44.8532 67.3119 44.959 67.5594 45.1132 67.7784C45.1449 67.8219 45.1782 67.8654 45.2129 67.9059C45.349 67.9299 45.4865 67.9419 45.6226 67.9419C45.7526 67.9419 45.8826 67.9314 46.0126 67.9089C46.1033 67.8939 46.1925 67.8714 46.2802 67.8459C46.2635 67.8399 46.2454 67.8339 46.2288 67.8264Z" fill="#020203"/>
</g>
</g>
</g>
</g>
</g>
<path d="M46.5172 68.9844C46.2603 68.9844 46.0033 68.9334 45.7614 68.8344C45.4152 68.6919 45.1189 68.4594 44.9073 68.1609C44.679 67.8399 44.5581 67.4559 44.5581 67.0494V56.4431C44.5581 56.2557 44.7108 56.1042 44.8997 56.1042C45.0887 56.1042 45.2414 56.2557 45.2414 56.4431V67.0494C45.2414 67.3194 45.317 67.5609 45.4651 67.7709C45.6027 67.9644 45.7947 68.1159 46.0214 68.2089C46.2482 68.3019 46.493 68.3304 46.7274 68.2899C46.9813 68.2464 47.2081 68.1279 47.4001 67.9374L51.9396 63.433C52.0726 63.301 52.2888 63.2935 52.4233 63.4255C52.5564 63.5575 52.5564 63.7795 52.4233 63.9115L47.8838 68.4159C47.5951 68.7024 47.2353 68.8899 46.8453 68.9574C46.7364 68.9754 46.6261 68.9844 46.5172 68.9844Z" fill="#53BECB"/>
<g opacity="0.3">
<g opacity="0.3">
<g opacity="0.3">
<g opacity="0.3">
<g opacity="0.3">
<path opacity="0.3" d="M46.8696 68.5839C46.8061 68.4939 46.7608 68.3949 46.7366 68.2869C46.7335 68.2869 46.732 68.2884 46.729 68.2884C46.4977 68.3274 46.2589 68.3019 46.0352 68.2119C46.0578 68.4894 46.1516 68.7504 46.3103 68.9724C46.3798 68.9799 46.4478 68.9829 46.5174 68.9829C46.6277 68.9829 46.7366 68.9739 46.8454 68.9544C46.9648 68.9334 47.0827 68.9019 47.1946 68.8599C47.0631 68.7954 46.9527 68.7009 46.8696 68.5839Z" fill="#020203"/>
</g>
</g>
</g>
</g>
</g>
<path d="M47.4015 70.0224C47.1944 70.0224 46.9873 69.9819 46.7923 69.9009C46.5126 69.7854 46.2738 69.5979 46.1029 69.3564C45.9185 69.0969 45.8218 68.7864 45.8218 68.4594V57.6956C45.8218 57.5081 45.9745 57.3566 46.1634 57.3566C46.3524 57.3566 46.5051 57.5081 46.5051 57.6956V68.4594C46.5051 68.6484 46.558 68.8194 46.6623 68.9664C46.759 69.1029 46.8936 69.2094 47.0538 69.2739C47.214 69.3399 47.3848 69.3594 47.5496 69.3309C47.728 69.3009 47.8867 69.2169 48.0213 69.0834L52.526 64.6135C52.6591 64.4815 52.8752 64.4815 53.0098 64.6135C53.1428 64.7455 53.1428 64.96 53.0098 65.0935L48.505 69.5634C48.2722 69.7944 47.982 69.9459 47.666 69.9999C47.5783 70.0149 47.4891 70.0224 47.4015 70.0224Z" fill="#5EB568"/>
<path d="M54.4674 62.9005L54.9648 62.4071C56.0758 61.3046 56.2769 60.1721 56.3132 59.7461C56.3177 59.6996 56.3011 59.6546 56.2678 59.6216C56.2346 59.5886 56.1892 59.5721 56.1439 59.5751C55.713 59.6066 54.5611 59.7971 53.4485 60.9011L52.9497 61.3961L52.7955 61.3661C52.4992 61.3091 52.1924 61.4021 51.9777 61.6151L51.3836 62.2061C51.3488 62.2406 51.3352 62.2931 51.3504 62.3396C51.3655 62.3876 51.4048 62.4236 51.4531 62.4326L51.9505 62.5316C52.0896 62.5601 52.218 62.6275 52.3193 62.728L53.1266 63.529C53.2278 63.6295 53.2974 63.757 53.3246 63.895L53.4244 64.39C53.4334 64.438 53.4697 64.4785 53.5181 64.492C53.5665 64.507 53.6179 64.4935 53.6526 64.459L54.2467 63.868C54.4599 63.6565 54.5536 63.352 54.4976 63.0565L54.4674 62.9005ZM54.4886 61.3736C54.3057 61.1921 54.3057 60.8981 54.4886 60.7181C54.6715 60.5366 54.9678 60.5366 55.1507 60.7181C55.3336 60.8996 55.3336 61.1921 55.1507 61.3751C54.9678 61.5551 54.6715 61.5551 54.4886 61.3736Z" fill="#15273F"/>
<path d="M51.7192 54.6387V58.5582H50.6338V54.6387H51.7192Z" fill="#15273F"/>
<path d="M54.5023 55.8837C54.7049 55.9902 54.8606 56.1387 54.9679 56.3277C55.0753 56.5167 55.1297 56.7327 55.1297 56.9757V57.3132H53.3036V57.5727C53.3036 57.6957 53.3429 57.7902 53.4215 57.8562C53.5001 57.9222 53.6014 57.9537 53.7253 57.9537C53.8538 57.9537 53.9506 57.9147 54.0186 57.8367C54.0866 57.7587 54.1199 57.6507 54.1199 57.5127H55.1236C55.1236 57.7197 55.0692 57.9072 54.9619 58.0737C54.8546 58.2402 54.6974 58.3721 54.4903 58.4681C54.2832 58.5641 54.0398 58.6121 53.7586 58.6121H53.677C53.3837 58.6121 53.1222 58.5581 52.8894 58.4516C52.6566 58.3451 52.4737 58.1892 52.3407 57.9837C52.2076 57.7782 52.1411 57.5352 52.1411 57.2517V57.0837C52.1411 56.8002 52.2046 56.5572 52.3301 56.3517C52.4555 56.1462 52.6324 55.9902 52.8592 55.8837C53.0859 55.7772 53.3459 55.7232 53.6377 55.7232H53.7752C54.0579 55.7232 54.2998 55.7757 54.5023 55.8837ZM53.4139 56.4927C53.3414 56.5677 53.3036 56.6562 53.3036 56.7627V56.8392H54.0609V56.7627C54.0609 56.6577 54.0247 56.5677 53.9506 56.4927C53.878 56.4177 53.7873 56.3817 53.6815 56.3817C53.5772 56.3817 53.488 56.4192 53.4139 56.4927Z" fill="#15273F"/>
<path d="M58.3615 55.7772L57.4454 58.5581H56.1892L55.2837 55.7772H56.4416L56.8528 57.3672H56.8906L57.3018 55.7772H58.3615Z" fill="#15273F"/>
<path d="M60.8661 55.8837C61.0687 55.9902 61.2244 56.1387 61.3317 56.3277C61.439 56.5167 61.4935 56.7327 61.4935 56.9757V57.3132H59.6674V57.5727C59.6674 57.6957 59.7067 57.7902 59.7853 57.8562C59.8639 57.9222 59.9652 57.9537 60.0891 57.9537C60.2176 57.9537 60.3144 57.9147 60.3824 57.8367C60.4504 57.7587 60.4837 57.6507 60.4837 57.5127H61.4874C61.4874 57.7197 61.433 57.9072 61.3257 58.0737C61.2183 58.2402 61.0611 58.3721 60.854 58.4681C60.6469 58.5641 60.4035 58.6121 60.1224 58.6121H60.0407C59.7475 58.6121 59.486 58.5581 59.2532 58.4516C59.0204 58.3451 58.8375 58.1892 58.7044 57.9837C58.5714 57.7782 58.5049 57.5352 58.5049 57.2517V57.0837C58.5049 56.8002 58.5684 56.5572 58.6938 56.3517C58.8193 56.1462 58.9962 55.9902 59.2229 55.8837C59.4497 55.7772 59.7097 55.7232 60.0014 55.7232H60.139C60.4202 55.7232 60.6635 55.7757 60.8661 55.8837ZM59.7762 56.4927C59.7036 56.5677 59.6658 56.6562 59.6658 56.7627V56.8392H60.4232V56.7627C60.4232 56.6577 60.3869 56.5677 60.3128 56.4927C60.2403 56.4177 60.1496 56.3817 60.0438 56.3817C59.9395 56.3817 59.8503 56.4192 59.7762 56.4927Z" fill="#15273F"/>
<path d="M64.1634 55.9212C64.2965 56.0532 64.363 56.2362 64.363 56.4687V56.5617L64.3524 56.7687L64.3418 56.9052H63.453V56.7747C63.453 56.6982 63.4303 56.6337 63.3849 56.5812C63.3396 56.5287 63.2852 56.5017 63.2232 56.5017C63.1567 56.5017 63.1023 56.5287 63.0554 56.5812C63.01 56.6337 62.9874 56.6982 62.9874 56.7747V58.5596H61.9292V55.7787H62.741L62.8619 56.1822C62.8846 56.1387 62.9254 56.0802 62.9874 56.0082C63.0493 55.9362 63.134 55.8702 63.2398 55.8117C63.3456 55.7532 63.4666 55.7247 63.6011 55.7247C63.8415 55.7232 64.0289 55.7892 64.1634 55.9212Z" fill="#15273F"/>
<path d="M67.1137 55.9677C67.339 56.1312 67.4508 56.3427 67.4508 56.6052V57.7541C67.4508 57.8231 67.4674 57.8741 67.5007 57.9071C67.534 57.9401 67.5733 57.9566 67.6216 57.9566C67.6912 57.9566 67.7547 57.9401 67.8136 57.9071V58.4891C67.6972 58.5731 67.5113 58.6136 67.2603 58.6136C67.026 58.6136 66.8416 58.5746 66.7071 58.4966C66.571 58.4186 66.4879 58.3106 66.4546 58.1726C66.3382 58.3076 66.2082 58.4141 66.0676 58.4936C65.927 58.5731 65.7547 58.6136 65.5491 58.6136C65.2559 58.6136 65.0185 58.5581 64.8356 58.4456C64.6527 58.3331 64.562 58.1111 64.562 57.7811C64.562 57.5307 64.6331 57.3372 64.7767 57.2022C64.9188 57.0657 65.1228 56.9712 65.3889 56.9187C65.6534 56.8662 65.9921 56.8392 66.4017 56.8392V56.6817C66.4017 56.5797 66.3685 56.5002 66.3004 56.4417C66.2324 56.3832 66.1478 56.3547 66.045 56.3547C65.9603 56.3547 65.8817 56.3787 65.8061 56.4282C65.7305 56.4777 65.6943 56.5377 65.6943 56.6112V56.6337H64.6527C64.6497 56.6232 64.6467 56.5977 64.6467 56.5572C64.6467 56.4012 64.7011 56.2602 64.8084 56.1357C64.9157 56.0112 65.0699 55.9107 65.2695 55.8357C65.469 55.7607 65.7003 55.7247 65.9633 55.7247H66.1447C66.5635 55.7232 66.8885 55.8042 67.1137 55.9677ZM65.8651 57.4287C65.7517 57.4917 65.6958 57.5802 65.6958 57.6927C65.6958 57.8666 65.8061 57.9536 66.0253 57.9536C66.1281 57.9536 66.2158 57.9176 66.2883 57.8471C66.3609 57.7766 66.3987 57.6852 66.3987 57.5727V57.3327C66.1568 57.3342 65.9784 57.3657 65.8651 57.4287Z" fill="#15273F"/>
<path d="M70.9307 55.7607C70.8294 55.8732 70.6797 55.9572 70.4787 56.0112C70.5769 56.0877 70.6525 56.1762 70.7069 56.2782C70.7599 56.3802 70.7871 56.4852 70.7871 56.5932C70.7871 56.7522 70.7372 56.8992 70.6389 57.0342C70.5407 57.1692 70.4061 57.2742 70.2383 57.3522C70.0705 57.4302 69.8876 57.4692 69.6896 57.4692H69.3117C69.2059 57.4692 69.1272 57.4842 69.0758 57.5157C69.0245 57.5472 68.9988 57.5862 68.9988 57.6327C68.9988 57.6867 69.0214 57.7287 69.0653 57.7572C69.1091 57.7857 69.1907 57.8007 69.3117 57.8007H70.2066C70.4983 57.8007 70.719 57.8771 70.8642 58.0316C71.0108 58.1861 71.0833 58.3916 71.0833 58.6496C71.0833 58.8131 71.0335 58.9661 70.9322 59.1101C70.8309 59.2541 70.6979 59.3681 70.5286 59.4536C70.3608 59.5391 70.1794 59.5811 69.9859 59.5811H68.5316C68.3518 59.5811 68.1976 59.5181 68.0676 59.3906C67.9376 59.2631 67.8726 59.1101 67.8726 58.9286V58.9016C67.8726 58.7741 67.9134 58.6571 67.9935 58.5506C68.0736 58.4441 68.1734 58.3631 68.2898 58.3091C68.2097 58.2551 68.1447 58.1861 68.0978 58.1021C68.0509 58.0181 68.0267 57.9296 68.0267 57.8352C68.0267 57.7017 68.0751 57.5787 68.1719 57.4707C68.2686 57.3612 68.388 57.2892 68.5316 57.2532C68.4032 57.1692 68.3019 57.0717 68.2248 56.9592C68.1477 56.8467 68.1099 56.7267 68.1099 56.6007C68.1099 56.3427 68.2172 56.1327 68.4334 55.9692C68.6496 55.8057 68.9625 55.7247 69.3721 55.7247H69.5263C69.6578 55.7247 69.7788 55.7352 69.8876 55.7577C70.0267 55.6677 70.125 55.5792 70.1839 55.4937C70.2429 55.4082 70.2716 55.3362 70.2716 55.2792H71.0833C71.0818 55.4862 71.032 55.6482 70.9307 55.7607ZM68.8521 58.6241C68.7992 58.6676 68.772 58.7201 68.772 58.7816C68.772 58.8431 68.7992 58.8971 68.8521 58.9421C68.905 58.9871 68.97 59.0096 69.0471 59.0096H69.8317C69.9088 59.0096 69.9738 58.9871 70.0267 58.9436C70.0796 58.9001 70.1068 58.8476 70.1068 58.7861C70.1068 58.7246 70.0796 58.6706 70.0267 58.6256C69.9738 58.5806 69.9088 58.5581 69.8317 58.5581H69.0471C68.97 58.5581 68.905 58.5806 68.8521 58.6241ZM69.2315 56.3562C69.1681 56.4237 69.1363 56.5047 69.1363 56.5977C69.1363 56.6922 69.1681 56.7732 69.2315 56.8392C69.295 56.9067 69.3752 56.9397 69.4704 56.9397C69.5656 56.9397 69.6442 56.9067 69.7092 56.8392C69.7727 56.7717 69.8045 56.6907 69.8045 56.5977C69.8045 56.5032 69.7727 56.4222 69.7092 56.3562C69.6457 56.2887 69.5656 56.2557 69.4704 56.2557C69.3736 56.2557 69.295 56.2902 69.2315 56.3562Z" fill="#15273F"/>
<path d="M73.5976 55.8837C73.8001 55.9902 73.9558 56.1387 74.0632 56.3277C74.1705 56.5167 74.2249 56.7327 74.2249 56.9757V57.3132H72.3988V57.5727C72.3988 57.6957 72.4381 57.7902 72.5167 57.8562C72.5953 57.9222 72.6966 57.9537 72.8206 57.9537C72.9491 57.9537 73.0458 57.9147 73.1138 57.8367C73.1819 57.7587 73.2151 57.6507 73.2151 57.5127H74.2189C74.2189 57.7197 74.1644 57.9072 74.0571 58.0737C73.9498 58.2402 73.7926 58.3721 73.5855 58.4681C73.3784 58.5641 73.135 58.6121 72.8538 58.6121H72.7722C72.4789 58.6121 72.2174 58.5581 71.9846 58.4516C71.7518 58.3451 71.5689 58.1892 71.4359 57.9837C71.3028 57.7782 71.2363 57.5352 71.2363 57.2517V57.0837C71.2363 56.8002 71.2998 56.5572 71.4253 56.3517C71.5508 56.1462 71.7276 55.9902 71.9544 55.8837C72.1811 55.7772 72.4411 55.7232 72.7329 55.7232H72.8704C73.1516 55.7232 73.395 55.7757 73.5976 55.8837ZM72.5092 56.4927C72.4366 56.5677 72.3988 56.6562 72.3988 56.7627V56.8392H73.1562V56.7627C73.1562 56.6577 73.1199 56.5677 73.0458 56.4927C72.9732 56.4177 72.8825 56.3817 72.7767 56.3817C72.6709 56.3817 72.5817 56.4192 72.5092 56.4927Z" fill="#15273F"/>
<path d="M59.8627 60.8726C60.0653 60.9791 60.221 61.1276 60.3283 61.3166C60.4356 61.5056 60.49 61.7216 60.49 61.9646V62.3021H58.6639V62.5631C58.6639 62.6861 58.7032 62.7806 58.7818 62.8466C58.8605 62.9126 58.9617 62.9441 59.0857 62.9441C59.2142 62.9441 59.3109 62.9051 59.379 62.8271C59.447 62.7491 59.4802 62.6411 59.4802 62.5031H60.484C60.484 62.7101 60.4296 62.8976 60.3222 63.064C60.2149 63.2305 60.0577 63.3625 59.8506 63.4585C59.6435 63.5545 59.4001 63.6025 59.119 63.6025H59.0373C58.7441 63.6025 58.4825 63.5485 58.2497 63.442C58.0169 63.3355 57.834 63.1795 57.701 62.974C57.568 62.7686 57.5015 62.5256 57.5015 62.2421V62.0726C57.5015 61.7891 57.565 61.5461 57.6904 61.3406C57.8159 61.1351 57.9928 60.9791 58.2195 60.8726C58.4463 60.7661 58.7063 60.7121 58.998 60.7121H59.1356C59.4168 60.7121 59.6586 60.7661 59.8627 60.8726ZM58.7728 61.4816C58.7002 61.5566 58.6624 61.6451 58.6624 61.7516V61.8281H59.4198V61.7516C59.4198 61.6466 59.3835 61.5566 59.3094 61.4816C59.2369 61.4066 59.1462 61.3706 59.0403 61.3706C58.936 61.3706 58.8468 61.4081 58.7728 61.4816Z" fill="#15273F"/>
<path d="M62.8061 63.547L62.7079 63.2261C62.5068 63.4765 62.271 63.601 62.0004 63.601C61.7737 63.601 61.5696 63.5485 61.3882 63.4435C61.2068 63.3386 61.0647 63.1796 60.9604 62.9666C60.8561 62.7536 60.8047 62.4941 60.8047 62.1851V62.1251C60.8047 61.8161 60.8516 61.5566 60.9453 61.3436C61.039 61.1306 61.1645 60.9731 61.3232 60.8666C61.4819 60.7616 61.6618 60.7091 61.8629 60.7091C62.206 60.7091 62.4479 60.8231 62.5869 61.0526V59.6261H63.6723V63.5455H62.8061V63.547ZM62.005 61.5041C61.9384 61.5791 61.9067 61.6676 61.9067 61.7741V62.5631C61.9067 62.6681 61.94 62.7581 62.005 62.8331C62.0715 62.9081 62.1516 62.9441 62.2468 62.9441C62.3421 62.9441 62.4222 62.9066 62.4887 62.8331C62.5552 62.7581 62.5869 62.6696 62.5869 62.5631V61.7741C62.5869 61.6691 62.5537 61.5791 62.4887 61.5041C62.4222 61.4291 62.3421 61.3931 62.2468 61.3931C62.1501 61.3931 62.07 61.4291 62.005 61.5041Z" fill="#15273F"/>
<path d="M66.9526 62.7416C66.9526 62.8106 66.9692 62.8616 67.0024 62.8946C67.0357 62.9276 67.075 62.9441 67.1234 62.9441C67.1929 62.9441 67.2564 62.9276 67.3154 62.8946V63.4766C67.199 63.5606 67.013 63.6011 66.7606 63.6011C66.5263 63.6011 66.3479 63.5636 66.2224 63.4901C66.0985 63.4151 66.0078 63.3056 65.9533 63.1601C65.8914 63.2546 65.7886 63.3521 65.6465 63.4511C65.5044 63.5501 65.3472 63.6011 65.1748 63.6011H65.0206C64.871 63.6011 64.7319 63.5651 64.6064 63.4916C64.481 63.4196 64.3812 63.3206 64.3071 63.1946C64.2346 63.0701 64.1968 62.9321 64.1968 62.7836V60.7646H65.2822V62.5061C65.2822 62.5976 65.3109 62.6741 65.3668 62.7371C65.4227 62.8001 65.4923 62.8331 65.5724 62.8331C65.6525 62.8331 65.7221 62.8016 65.778 62.7371C65.8339 62.6741 65.8626 62.5961 65.8626 62.5061V60.7646H66.948L66.9526 62.7416Z" fill="#15273F"/>
<path d="M2.66159 7.61843L2.28959 8.81843H4.65359L4.28159 7.61843C4.13759 7.17843 4.00159 6.74243 3.87359 6.31043C3.74559 5.87043 3.61759 5.42243 3.48959 4.96643H3.44159C3.32159 5.42243 3.19759 5.87043 3.06959 6.31043C2.94159 6.74243 2.80559 7.17843 2.66159 7.61843ZM0.261586 12.0224L2.92559 4.15043H4.05359L6.71759 12.0224H5.64959L4.90559 9.62243H2.03759L1.28159 12.0224H0.261586ZM7.73693 14.4824V6.19043H8.55293L8.63693 6.86243H8.67293C8.93693 6.63843 9.22493 6.44643 9.53693 6.28643C9.85693 6.12643 10.1889 6.04643 10.5329 6.04643C10.9089 6.04643 11.2409 6.11843 11.5289 6.26243C11.8169 6.39843 12.0569 6.59843 12.2489 6.86243C12.4409 7.11843 12.5849 7.43043 12.6809 7.79843C12.7849 8.15843 12.8369 8.56643 12.8369 9.02243C12.8369 9.51843 12.7689 9.96243 12.6329 10.3544C12.4969 10.7384 12.3129 11.0664 12.0809 11.3384C11.8489 11.6104 11.5809 11.8184 11.2769 11.9624C10.9729 12.0984 10.6529 12.1664 10.3169 12.1664C10.0449 12.1664 9.77293 12.1064 9.50093 11.9864C9.23693 11.8664 8.96893 11.7024 8.69693 11.4944L8.72093 12.5144V14.4824H7.73693ZM10.1489 11.3384C10.3889 11.3384 10.6089 11.2864 10.8089 11.1824C11.0169 11.0704 11.1929 10.9184 11.3369 10.7264C11.4889 10.5264 11.6049 10.2824 11.6849 9.99443C11.7729 9.70643 11.8169 9.38243 11.8169 9.02243C11.8169 8.70243 11.7889 8.41043 11.7329 8.14643C11.6769 7.88243 11.5849 7.65843 11.4569 7.47443C11.3369 7.28243 11.1769 7.13443 10.9769 7.03043C10.7849 6.92643 10.5529 6.87443 10.2809 6.87443C10.0329 6.87443 9.78093 6.94243 9.52493 7.07843C9.27693 7.21443 9.00893 7.41043 8.72093 7.66643V10.7264C8.98493 10.9504 9.24093 11.1104 9.48893 11.2064C9.73693 11.2944 9.95693 11.3384 10.1489 11.3384ZM14.3932 14.4824V6.19043H15.2092L15.2932 6.86243H15.3292C15.5932 6.63843 15.8812 6.44643 16.1932 6.28643C16.5132 6.12643 16.8452 6.04643 17.1892 6.04643C17.5652 6.04643 17.8972 6.11843 18.1852 6.26243C18.4732 6.39843 18.7132 6.59843 18.9052 6.86243C19.0972 7.11843 19.2412 7.43043 19.3372 7.79843C19.4412 8.15843 19.4932 8.56643 19.4932 9.02243C19.4932 9.51843 19.4252 9.96243 19.2892 10.3544C19.1532 10.7384 18.9692 11.0664 18.7372 11.3384C18.5052 11.6104 18.2372 11.8184 17.9332 11.9624C17.6292 12.0984 17.3092 12.1664 16.9732 12.1664C16.7012 12.1664 16.4292 12.1064 16.1572 11.9864C15.8932 11.8664 15.6252 11.7024 15.3532 11.4944L15.3772 12.5144V14.4824H14.3932ZM16.8052 11.3384C17.0452 11.3384 17.2652 11.2864 17.4652 11.1824C17.6732 11.0704 17.8492 10.9184 17.9932 10.7264C18.1452 10.5264 18.2612 10.2824 18.3412 9.99443C18.4292 9.70643 18.4732 9.38243 18.4732 9.02243C18.4732 8.70243 18.4452 8.41043 18.3892 8.14643C18.3332 7.88243 18.2412 7.65843 18.1132 7.47443C17.9932 7.28243 17.8332 7.13443 17.6332 7.03043C17.4412 6.92643 17.2092 6.87443 16.9372 6.87443C16.6892 6.87443 16.4372 6.94243 16.1812 7.07843C15.9332 7.21443 15.6652 7.41043 15.3772 7.66643V10.7264C15.6412 10.9504 15.8972 11.1104 16.1452 11.2064C16.3932 11.2944 16.6132 11.3384 16.8052 11.3384ZM22.0934 12.1664C21.7174 12.1664 21.4494 12.0544 21.2894 11.8304C21.1294 11.6064 21.0494 11.2784 21.0494 10.8464V3.47843H22.0334V10.9184C22.0334 11.0784 22.0614 11.1904 22.1174 11.2544C22.1734 11.3184 22.2374 11.3504 22.3094 11.3504C22.3414 11.3504 22.3694 11.3504 22.3934 11.3504C22.4254 11.3504 22.4694 11.3424 22.5254 11.3264L22.6574 12.0704C22.5934 12.1024 22.5174 12.1264 22.4294 12.1424C22.3414 12.1584 22.2294 12.1664 22.0934 12.1664ZM24.204 14.5304C24.068 14.5304 23.944 14.5184 23.832 14.4944C23.72 14.4784 23.616 14.4504 23.52 14.4104L23.712 13.6304C23.776 13.6464 23.848 13.6624 23.928 13.6784C24.008 13.7024 24.084 13.7144 24.156 13.7144C24.492 13.7144 24.764 13.5944 24.972 13.3544C25.188 13.1224 25.356 12.8264 25.476 12.4664L25.608 12.0344L23.268 6.19043H24.288L25.476 9.41843C25.564 9.67443 25.656 9.94643 25.752 10.2344C25.856 10.5144 25.952 10.7904 26.04 11.0624H26.088C26.176 10.7984 26.26 10.5224 26.34 10.2344C26.42 9.94643 26.5 9.67443 26.58 9.41843L27.624 6.19043H28.584L26.388 12.5024C26.284 12.7904 26.168 13.0584 26.04 13.3064C25.912 13.5544 25.76 13.7664 25.584 13.9424C25.408 14.1264 25.208 14.2704 24.984 14.3744C24.76 14.4784 24.5 14.5304 24.204 14.5304ZM33.0359 12.0224L31.4159 6.19043H32.4239L33.2879 9.56243C33.3519 9.84243 33.4119 10.1144 33.4679 10.3784C33.5239 10.6424 33.5799 10.9104 33.6359 11.1824H33.6839C33.7479 10.9104 33.8119 10.6424 33.8759 10.3784C33.9399 10.1064 34.0079 9.83443 34.0799 9.56243L34.9799 6.19043H35.9399L36.8519 9.56243C36.9239 9.84243 36.9919 10.1144 37.0559 10.3784C37.1279 10.6424 37.1959 10.9104 37.2599 11.1824H37.3079C37.3719 10.9104 37.4319 10.6424 37.4879 10.3784C37.5439 10.1144 37.6039 9.84243 37.6679 9.56243L38.5199 6.19043H39.4559L37.8959 12.0224H36.6959L35.8559 8.89043C35.7839 8.61043 35.7159 8.33443 35.6519 8.06243C35.5959 7.79043 35.5319 7.50643 35.4599 7.21043H35.4119C35.3479 7.50643 35.2839 7.79443 35.2199 8.07443C35.1559 8.34643 35.0839 8.62243 35.0039 8.90243L34.1879 12.0224H33.0359ZM40.7252 12.0224V6.19043H41.7092V12.0224H40.7252ZM41.2292 4.99043C41.0372 4.99043 40.8732 4.93043 40.7372 4.81043C40.6092 4.69043 40.5452 4.53843 40.5452 4.35443C40.5452 4.16243 40.6092 4.01043 40.7372 3.89843C40.8732 3.77843 41.0372 3.71843 41.2292 3.71843C41.4212 3.71843 41.5812 3.77843 41.7092 3.89843C41.8452 4.01043 41.9132 4.16243 41.9132 4.35443C41.9132 4.53843 41.8452 4.69043 41.7092 4.81043C41.5812 4.93043 41.4212 4.99043 41.2292 4.99043ZM45.5143 12.1664C45.2023 12.1664 44.9383 12.1184 44.7223 12.0224C44.5143 11.9264 44.3423 11.7944 44.2063 11.6264C44.0783 11.4584 43.9863 11.2544 43.9303 11.0144C43.8743 10.7744 43.8463 10.5104 43.8463 10.2224V6.99443H42.9823V6.25043L43.8943 6.19043L44.0143 4.55843H44.8423V6.19043H46.4143V6.99443H44.8423V10.2344C44.8423 10.5944 44.9063 10.8744 45.0343 11.0744C45.1703 11.2664 45.4063 11.3624 45.7423 11.3624C45.8463 11.3624 45.9583 11.3464 46.0783 11.3144C46.1983 11.2824 46.3063 11.2464 46.4023 11.2064L46.5943 11.9504C46.4343 12.0064 46.2583 12.0544 46.0663 12.0944C45.8823 12.1424 45.6983 12.1664 45.5143 12.1664ZM47.733 12.0224V3.47843H48.717V5.80643L48.681 7.00643C48.961 6.74243 49.253 6.51843 49.557 6.33443C49.861 6.14243 50.217 6.04643 50.625 6.04643C51.241 6.04643 51.689 6.23843 51.969 6.62243C52.257 7.00643 52.401 7.57443 52.401 8.32643V12.0224H51.417V8.45843C51.417 7.90643 51.329 7.51043 51.153 7.27043C50.977 7.02243 50.697 6.89843 50.313 6.89843C50.009 6.89843 49.741 6.97443 49.509 7.12643C49.277 7.27843 49.013 7.50243 48.717 7.79843V12.0224H47.733Z" fill="black"/>
</svg>
