<svg xmlns="http://www.w3.org/2000/svg" xmlns:xlink="http://www.w3.org/1999/xlink" viewBox="0 0 373.72 353.81">
  <defs>
    <style>
      .cls-1 {
        isolation: isolate;
      }

      .cls-2 {
        fill: #fff;
      }

      .cls-16, .cls-3 {
        fill: #ffb300;
      }

      .cls-4 {
        fill: #e5e5e5;
      }

      .cls-5 {
        fill: #c53937;
      }

      .cls-21, .cls-6 {
        fill: #31236c;
      }

      .cls-7 {
        fill: #873134;
      }

      .cls-23, .cls-8 {
        fill: #fbb1a6;
      }

      .cls-10, .cls-9 {
        fill: #f1f2f2;
      }

      .cls-10 {
        opacity: 0.46;
        mix-blend-mode: color-dodge;
      }

      .cls-11 {
        fill: #d1d3d4;
      }

      .cls-12 {
        fill: url(#linear-gradient);
      }

      .cls-13 {
        opacity: 0.19;
        fill: url(#linear-gradient-2);
      }

      .cls-13, .cls-16, .cls-21, .cls-23, .cls-25, .cls-27, .cls-30 {
        mix-blend-mode: multiply;
      }

      .cls-14 {
        fill: url(#linear-gradient-3);
      }

      .cls-15 {
        fill: url(#linear-gradient-4);
      }

      .cls-16 {
        opacity: 0.52;
      }

      .cls-17 {
        fill: #fcfcfc;
      }

      .cls-18 {
        fill: #2d3775;
      }

      .cls-19 {
        fill: #242b6e;
      }

      .cls-20 {
        fill: url(#linear-gradient-5);
      }

      .cls-21 {
        opacity: 0.3;
      }

      .cls-22 {
        fill: #e2e2e2;
      }

      .cls-23 {
        opacity: 0.26;
      }

      .cls-24 {
        fill: url(#linear-gradient-6);
      }

      .cls-25, .cls-27 {
        opacity: 0.33;
      }

      .cls-25 {
        fill: url(#linear-gradient-7);
      }

      .cls-26 {
        fill: url(#linear-gradient-8);
      }

      .cls-27 {
        fill: url(#linear-gradient-9);
      }

      .cls-28 {
        fill: #e9b649;
      }

      .cls-29 {
        fill: #dd9f33;
      }

      .cls-30 {
        opacity: 0.1;
      }

      .cls-31 {
        fill: url(#linear-gradient-10);
      }

      .cls-32 {
        fill: url(#linear-gradient-11);
      }
    </style>
    <linearGradient id="linear-gradient" x1="22.72" y1="67.14" x2="46" y2="156.56" gradientUnits="userSpaceOnUse">
      <stop offset="0" stop-color="#6ad0fb"/>
      <stop offset="0.23" stop-color="#6acdfa"/>
      <stop offset="0.39" stop-color="#69c4f5"/>
      <stop offset="0.53" stop-color="#69b4ee"/>
      <stop offset="0.65" stop-color="#689ee4"/>
      <stop offset="0.77" stop-color="#6682d6"/>
      <stop offset="0.88" stop-color="#6560c6"/>
      <stop offset="0.99" stop-color="#6337b3"/>
      <stop offset="0.99" stop-color="#6336b2"/>
    </linearGradient>
    <linearGradient id="linear-gradient-2" x1="24.15" y1="66.76" x2="47.42" y2="156.19" xlink:href="#linear-gradient"/>
    <linearGradient id="linear-gradient-3" x1="43.76" y1="56.81" x2="45.59" y2="153.09" xlink:href="#linear-gradient"/>
    <linearGradient id="linear-gradient-4" x1="60.68" y1="89.41" x2="42.06" y2="142.33" xlink:href="#linear-gradient"/>
    <linearGradient id="linear-gradient-5" x1="103" y1="73.88" x2="169.66" y2="46.82" gradientUnits="userSpaceOnUse">
      <stop offset="0" stop-color="#43295d"/>
      <stop offset="1" stop-color="#774b88"/>
    </linearGradient>
    <linearGradient id="linear-gradient-6" x1="71.61" y1="114.2" x2="148.33" y2="159.03" gradientUnits="userSpaceOnUse">
      <stop offset="0" stop-color="#3cb595"/>
      <stop offset="1" stop-color="#1f876f"/>
    </linearGradient>
    <linearGradient id="linear-gradient-7" x1="80.38" y1="135.23" x2="107.82" y2="135.23" gradientUnits="userSpaceOnUse">
      <stop offset="0" stop-color="#9a72f6"/>
      <stop offset="1" stop-color="#724ce4"/>
    </linearGradient>
    <linearGradient id="linear-gradient-8" x1="81.84" y1="143.53" x2="272.36" y2="176.43" xlink:href="#linear-gradient-6"/>
    <linearGradient id="linear-gradient-9" x1="111.41" y1="130.73" x2="313.41" y2="254.3" xlink:href="#linear-gradient-7"/>
    <linearGradient id="linear-gradient-10" x1="145.58" y1="33.25" x2="150.02" y2="78.37" xlink:href="#linear-gradient-5"/>
    <linearGradient id="linear-gradient-11" x1="124.18" y1="34.48" x2="128.77" y2="81.15" xlink:href="#linear-gradient-5"/>
  </defs>
  <g class="cls-1">
    <g id="Layer_1" data-name="Layer 1">
      <g>
        <rect class="cls-2" x="294.99" y="156.82" width="4.51" height="159.37"/>
        <rect class="cls-2" x="74.85" y="156.82" width="4.51" height="159.37"/>
        <path class="cls-3" d="M185.61,297s-6.14,16.19-2.24,18.28,40.33,0,40.33,0,3.21-6.33-6.56-8.68-14.23-8.21-14.23-8.21Z"/>
        <path class="cls-3" d="M122.19,297s-6.14,16.19-2.23,18.28,40.33,0,40.33,0,3.21-6.33-6.56-8.68-14.23-8.21-14.23-8.21Z"/>
        <rect class="cls-4" x="5.44" y="156.27" width="362.84" height="4.01" rx="1.26"/>
        <path class="cls-2" d="M367,156.27H6.7a1.25,1.25,0,0,0-1.26,1.26v1.11a1.26,1.26,0,0,1,1.26-1.26H367a1.27,1.27,0,0,1,1.26,1.26v-1.11A1.26,1.26,0,0,0,367,156.27Z"/>
        <rect class="cls-2" x="352.37" y="156.82" width="4.51" height="159.37"/>
        <path class="cls-2" d="M242.92,108.21S254,126.79,254,138.68c0,6.74-7.85,14.19-7.85,14.19l-44.08-.06s25.74-7.21,19.26-23-10.49-21.58-10.49-21.58Z"/>
        <path class="cls-5" d="M161.48,186s48.44,3.36,66,18.72c5.52,8.36,8.52,9-22.88,93.89,0,0-12.37,6-20.72-1.67a577.59,577.59,0,0,0,14.37-68.49s-36.75,4-45.44-.67S146.12,195,161.48,186Z"/>
        <path class="cls-6" d="M98.09,186s48.45,3.36,66,18.72c5.51,8.36,8.52,9-22.88,93.89,0,0-12.37,6-20.72-1.67a577.59,577.59,0,0,0,14.37-68.49s-26,1.23-34.76-3.25C84.37,217.22,82.73,195,98.09,186Z"/>
        <path class="cls-7" d="M98.09,186s48.45,3.36,66,18.72c5.51,8.36,8.52,9-22.88,93.89,0,0-12.37,6-20.72-1.67a577.59,577.59,0,0,0,14.37-68.49s-26,1.23-34.76-3.25C84.37,217.22,82.73,195,98.09,186Z"/>
        <rect class="cls-2" x="17.47" y="156.82" width="4.51" height="159.37"/>
        <path class="cls-8" d="M221.62,137.76s9.23-3.41,13.85-.65c5.18,3.09,7.52,7.27,8.77,14,1,5.41-6.26-3.51-7.77-4.18s-4.67,5.85-9,4.18-6.51-12.46-6.51-12.46"/>
        <polygon class="cls-9" points="356.06 111.58 318.43 111.58 299.5 156.18 337.12 156.18 356.06 111.58"/>
        <path class="cls-10" d="M341.43,111.58h-23l-15.27,36a25.61,25.61,0,0,0,11.9,2.93c15.25,0,27.61-13.44,27.61-30A32.27,32.27,0,0,0,341.43,111.58Z"/>
        <polygon class="cls-11" points="356.06 111.58 362.26 156.18 337.12 156.18 356.06 111.58"/>
        <g>
          <path class="cls-11" d="M344,129.06H317.38a.72.72,0,0,1-.66-1h0a.72.72,0,0,1,.66-.45H344a.72.72,0,0,1,.66,1h0A.71.71,0,0,1,344,129.06Z"/>
          <path class="cls-11" d="M341.94,133.88h-26.6a.73.73,0,0,1-.67-1h0a.73.73,0,0,1,.67-.44h26.6a.73.73,0,0,1,.67,1h0A.74.74,0,0,1,341.94,133.88Z"/>
          <path class="cls-11" d="M339.9,138.7H313.29a.73.73,0,0,1-.66-1h0a.71.71,0,0,1,.66-.44H339.9a.71.71,0,0,1,.66,1h0A.72.72,0,0,1,339.9,138.7Z"/>
          <path class="cls-11" d="M328.2,142.77H311.56a.72.72,0,0,1-.66-1h0a.72.72,0,0,1,.66-.45H328.2a.73.73,0,0,1,.67,1h0A.73.73,0,0,1,328.2,142.77Z"/>
          <path class="cls-11" d="M334.11,152.34H317.47a.72.72,0,0,1-.66-1h0a.71.71,0,0,1,.66-.44h16.64a.72.72,0,0,1,.66,1h0A.72.72,0,0,1,334.11,152.34Z"/>
        </g>
        <g>
          <path class="cls-11" d="M324.37,116.63l-2.91,6.87h-1.59l2.91-6.87Z"/>
          <polygon class="cls-11" points="326.25 116.64 325.7 117.93 326.3 117.93 328.58 117.93 323.75 123.5 325.48 123.5 330.51 117.67 330.94 116.64 326.25 116.64"/>
        </g>
        <g>
          <path class="cls-3" d="M54.64,132.82a2.28,2.28,0,0,0-2.27-2.39H27.56a2.26,2.26,0,0,0-2.26,2.39c.25,4.79,1.55,15.75,8.07,23.45H46.56C53.08,148.57,54.38,137.61,54.64,132.82Z"/>
          <path class="cls-12" d="M36,130.43s-13.25-16.2-10.74-51.59C45.78,100.27,40,130.43,40,130.43Z"/>
          <path class="cls-13" d="M25.29,78.84a.53.53,0,0,1,0,.13c16,20.29,11.54,45.47,10.32,50.88.28.39.43.58.43.58H40S45.78,100.27,25.29,78.84Z"/>
          <path class="cls-14" d="M49.71,61.43S30.94,82,40,130.43h2.49S56,93.93,49.71,61.43Z"/>
          <path class="cls-15" d="M63.11,88.5S47.49,100,42.46,130.43h2S64.72,110,63.11,88.5Z"/>
          <path class="cls-16" d="M42.46,156.27h4.1a28.52,28.52,0,0,0,3.68-5.63c-15.06-1.23-16.55-12.07-16.53-16.49a1.86,1.86,0,0,0-1.86-1.87H25.33a2.45,2.45,0,0,0,0,.54c.25,4.79,1.55,15.75,8.07,23.45h9.09Z"/>
        </g>
        <polygon class="cls-17" points="132.83 110.81 146.71 12.06 320.01 12.06 306.13 110.81 132.83 110.81"/>
        <polygon class="cls-18" points="303.9 108.21 135.79 108.21 148.94 14.66 317.04 14.66 303.9 108.21"/>
        <path class="cls-8" d="M143.41,80.65s-3.08,3.67-3.58,11l-21.66-1.34,3.09-10,14-26.79,8.17-.83S145.74,63.61,143.41,80.65Z"/>
        <path class="cls-19" d="M145,44.39a44.26,44.26,0,0,0,31.8,48.86,123.67,123.67,0,0,0,32.88,4.35c47.23,0,85.51-25.46,85.51-56.87,0-9.3-3.35-18.08-9.3-25.83H149.14Z"/>
        <path class="cls-20" d="M157,83.59a3.81,3.81,0,0,1-4.68,3.07c-4.13-1-9.86-3.5-9.21-9,1-8.46,2.23-22.49-3.23-22.16s-4.56,6.91-2.11,12-7.91,14-16.49,12.81c0,0,.62-5.41-3.78-11.47-6-8.27-7.47-13.26-7.8-17.82s1.56-10.58,7.57-12.48C119.13,33.09,129,24.31,157.13,34a15.05,15.05,0,0,0,2.64.68,14.45,14.45,0,0,0,7.6-.7s1.24,7.29-2.4,12.14a7.18,7.18,0,0,1-6.48,2.84c-5.78-.57-8.63,2.36-9.72,6.62-1.22,4.79-3,20.72,1.45,23a26.82,26.82,0,0,0,7.13,2.79Z"/>
        <rect class="cls-2" x="193.56" y="152.87" width="73.28" height="3.39"/>
        <rect class="cls-4" x="193.56" y="154.06" width="73.28" height="2.21"/>
        <path class="cls-21" d="M193.45,300.86c7.73-25.59,16.71-74.22,16.71-74.22l-11.94,1.85a585.89,585.89,0,0,1-11.93,59.45c-.52,3.22-1,6.61-1.42,9.89A15.14,15.14,0,0,0,193.45,300.86Z"/>
        <path class="cls-22" d="M165.51,228.32l-4.33,1.44a2.46,2.46,0,0,0-1.52,3.21l35.5,93a2.47,2.47,0,0,0,2.6,1.57h0a2.46,2.46,0,0,0,2-3.21l-31.18-94.43A2.47,2.47,0,0,0,165.51,228.32Z"/>
        <path class="cls-22" d="M129.46,226.68l4.47.89a2.46,2.46,0,0,1,1.91,3l-23.77,96.67a2.45,2.45,0,0,1-2.39,1.87h0a2.47,2.47,0,0,1-2.41-2.94l19.3-97.55A2.47,2.47,0,0,1,129.46,226.68Z"/>
        <path class="cls-22" d="M100.86,227.8l4.92,1.35a2.75,2.75,0,0,1,1.89,3.5L73.38,338.75a2.77,2.77,0,0,1-2.82,1.9h0a2.76,2.76,0,0,1-2.46-3.48L97.47,229.73A2.75,2.75,0,0,1,100.86,227.8Z"/>
        <path class="cls-23" d="M134.62,91.35l5.21.32c.5-7.35,3.58-11,3.58-11,.18-1.27.32-2.5.45-3.69A18.24,18.24,0,0,0,134.62,91.35Z"/>
        <path class="cls-24" d="M109.64,91.18s-14.33.17-27.36,26.23-12.52,28.51-12.52,28.51-6.85,27,33.24,14.59Z"/>
        <path class="cls-25" d="M107.82,117.41c-1.76-6.41-3.21-10.71-3.21-10.71s-35.1,37.11-20.81,57c4.82.32,11.27-.52,19.89-3.18Z"/>
        <path class="cls-26" d="M88,148.3a127.79,127.79,0,0,1,4.35-32.07c4.67-17.71,6-28.59,37.09-26.49s28.82,4.1,33.12,7.11c3.47,2.43,18.84,28.22,24.63,38.05a7.22,7.22,0,0,0,6.6,3.54c8-.44,24.26-1.29,26.52-1.16,3,.16,8.19,8,7,14.86-25.4,9-38,13.87-47.61,11-11.24-3.32-19.41-26.54-22-27.4-.7,5.8-3.27,33.32,3.09,46.94,7,15-41.77,40.1-72.84,23.06C88.3,169.35,88,148.3,88,148.3Z"/>
        <path class="cls-27" d="M226.18,144.75c-3.07,1.92-35.58,21.59-49.18,3.62-14.28-18.88-20.22-38.26-32.55-24.49S131,175.4,131.31,176.93c.2,1,6.08,17.53,9.9,28.22,13.65-6.09,22.61-15.33,19.32-22.37-6.35-13.62-3.78-41.15-3.09-46.94,2.57.85,10.73,24.08,22,27.39,9.63,2.84,22.22-2,47.61-11A14.81,14.81,0,0,0,226.18,144.75Z"/>
        <path class="cls-28" d="M77.27,192.07S72.6,144.29,113,144.29c44.14,0,37.76,45.11,49.5,62.15,4.91,10.62,13.29,19,21.32,23.21s-49.3,22.92-80.17,5.35C78.27,220.55,77.27,192.07,77.27,192.07Z"/>
        <path class="cls-29" d="M184,229.65c-8-4.18-16.41-12.59-21.32-23.21-11.74-17-5.36-62.15-49.5-62.15-13.81,0-22.36,5.58-27.63,12.93,4.72-2.69,10.68-4.35,18.19-4.35,44.15,0,37.76,45.11,49.5,62.15a51.8,51.8,0,0,0,19.36,22.11C181.7,234.3,186.78,231.1,184,229.65Z"/>
        <path class="cls-22" d="M142.74,227.51h0a5.24,5.24,0,0,0-4.07,6.39l26,105.75a2.76,2.76,0,0,0,2.67,2.1h0a2.76,2.76,0,0,0,2.71-3.29L148.91,231.63A5.24,5.24,0,0,0,142.74,227.51Z"/>
        <polygon class="cls-3" points="342.6 122.81 337.12 122.81 339.45 117.33 344.92 117.33 342.6 122.81"/>
        <g class="cls-30">
          <path class="cls-31" d="M157,83.29l.32-1.92a26.82,26.82,0,0,1-7.13-2.79c-3.74-2-3.08-13.51-2.05-20a11.16,11.16,0,0,0-4.55,2c.77,4.78.08,11.95-.53,17.07-.63,5.32,4.77,7.78,8.87,8.88A4.09,4.09,0,0,0,157,83.29Z"/>
          <path class="cls-32" d="M117,68.16l.53.74c4.4,6.06,3.78,11.47,3.78,11.47,8.58,1.22,18.94-7.69,16.49-12.81-.2-.4-.38-.82-.55-1.23C130.42,71.17,123.12,70.53,117,68.16Z"/>
        </g>
        <ellipse class="cls-9" cx="221.71" cy="52.93" rx="8.91" ry="7.74" transform="translate(23.44 165.39) rotate(-42.99)"/>
        <path class="cls-9" d="M219.19,67.6H188a1.1,1.1,0,0,1-1.09-1.26l.14-1a1.11,1.11,0,0,1,1.09-1h31.24a1.1,1.1,0,0,1,1.09,1.26l-.15,1A1.1,1.1,0,0,1,219.19,67.6Z"/>
        <path class="cls-9" d="M218.13,73.11H186.9a1.11,1.11,0,0,1-1.1-1.26l.15-1a1.1,1.1,0,0,1,1.09-.95h31.23a1.11,1.11,0,0,1,1.1,1.26l-.15,1A1.11,1.11,0,0,1,218.13,73.11Z"/>
        <path class="cls-9" d="M218.13,78.38H186.9a1.11,1.11,0,0,1-1.1-1.26l.15-1a1.1,1.1,0,0,1,1.09-1h31.23a1.11,1.11,0,0,1,1.1,1.26l-.15,1A1.11,1.11,0,0,1,218.13,78.38Z"/>
        <path class="cls-9" d="M255.38,67.6H224.15a1.11,1.11,0,0,1-1.1-1.26l.15-1a1.1,1.1,0,0,1,1.09-1h31.23a1.11,1.11,0,0,1,1.1,1.26l-.15,1A1.11,1.11,0,0,1,255.38,67.6Z"/>
        <path class="cls-9" d="M254.31,73.11H223.08A1.1,1.1,0,0,1,222,71.85l.14-1a1.12,1.12,0,0,1,1.1-.95h31.23a1.1,1.1,0,0,1,1.09,1.26l-.14,1A1.12,1.12,0,0,1,254.31,73.11Z"/>
        <path class="cls-9" d="M254.31,78.38H223.08A1.1,1.1,0,0,1,222,77.12l.14-1a1.12,1.12,0,0,1,1.1-1h31.23a1.1,1.1,0,0,1,1.09,1.26l-.14,1A1.12,1.12,0,0,1,254.31,78.38Z"/>
        <path class="cls-3" d="M224.52,84.31h-8.27a1.11,1.11,0,0,1-1.1-1.25l.15-1a1.09,1.09,0,0,1,1.09-1h8.28a1.09,1.09,0,0,1,1.09,1.25l-.14,1A1.1,1.1,0,0,1,224.52,84.31Z"/>
        <path class="cls-8" d="M162.33,48.23a28.52,28.52,0,0,1-1.15,11.84,15.41,15.41,0,0,0,.65,10.68l0,.07a2.09,2.09,0,0,1-.83,2.67,8.25,8.25,0,0,1-.79.4,2.88,2.88,0,0,0-1.68,2l-1.21,5.47-9.25-1.78-2.56-20.5,7.69-14.25Z"/>
      </g>
    </g>
  </g>
</svg>
