<svg xmlns="http://www.w3.org/2000/svg" xmlns:xlink="http://www.w3.org/1999/xlink" viewBox="0 0 2560 1050">
  <defs>
    <style>
      .cls-1 {
        isolation: isolate;
      }

      .cls-2 {
        fill: url(#linear-gradient);
      }

      .cls-3 {
        mix-blend-mode: overlay;
      }

      .cls-4 {
        fill: #666;
      }
    </style>
    <linearGradient id="linear-gradient" y1="525" x2="2560" y2="525" gradientUnits="userSpaceOnUse">
      <stop offset="0" stop-color="#242b6e"/>
      <stop offset="1" stop-color="#3166b6"/>
    </linearGradient>
  </defs>
  <g class="cls-1">
    <g id="Layer_1" data-name="Layer 1">
      <rect class="cls-2" width="2560" height="1050"/>
      <g class="cls-3">
        <path class="cls-4" d="M322.43,866.09l68.72,39.67v79.35l-68.72,39.67-68.71-39.67V905.76Zm66.37,41L322.43,868.8l-66.36,38.32v76.63l66.36,38.32,66.37-38.32Z"/>
        <path class="cls-4" d="M187.35,866.09l68.72,39.67v79.35l-68.72,39.67-68.71-39.67V905.76Zm66.37,41L187.35,868.8,121,907.12v76.63l66.36,38.32,66.37-38.32Z"/>
        <path class="cls-4" d="M52.27,866.09,121,905.76v79.35l-68.72,39.67-68.71-39.67V905.76Zm66.37,41L52.27,868.8l-66.36,38.32v76.63l66.36,38.32,66.37-38.32Z"/>
        <path class="cls-4" d="M660.13,749.11l68.71,39.67v79.34l-68.71,39.67-68.71-39.67V788.78Zm66.37,41-66.37-38.32-66.37,38.32v76.63l66.37,38.32,66.37-38.32Z"/>
        <path class="cls-4" d="M525.05,749.11l68.71,39.67v79.34l-68.71,39.67-68.71-39.67V788.78Zm66.37,41-66.37-38.32-66.36,38.32v76.63l66.36,38.32,66.37-38.32Z"/>
        <path class="cls-4" d="M390,749.11l68.72,39.67v79.34L390,907.79l-68.71-39.67V788.78Zm66.37,41L390,751.82l-66.36,38.32v76.63L390,905.09l66.37-38.32Z"/>
        <path class="cls-4" d="M254.89,749.11l68.72,39.67v79.34l-68.72,39.67-68.71-39.67V788.78Zm66.37,41-66.37-38.32-66.36,38.32v76.63l66.36,38.32,66.37-38.32Z"/>
        <path class="cls-4" d="M119.81,749.11l68.72,39.67v79.34l-68.72,39.67L51.1,868.12V788.78Zm66.37,41-66.37-38.32L53.45,790.14v76.63l66.36,38.32,66.37-38.32Z"/>
        <path class="cls-4" d="M592.59,632.13,661.3,671.8v79.34l-68.71,39.67-68.71-39.67V671.8Zm66.37,41-66.37-38.31-66.36,38.31v76.64l66.36,38.31L659,749.79Z"/>
        <path class="cls-4" d="M457.51,632.13l68.72,39.67v79.34l-68.72,39.67L388.8,751.14V671.8Zm66.37,41-66.37-38.31-66.36,38.31v76.64l66.36,38.31,66.37-38.31Z"/>
        <path class="cls-4" d="M187.35,632.13l68.72,39.67v79.34l-68.72,39.67-68.71-39.67V671.8Zm66.37,41-66.37-38.31L121,673.15v76.64l66.36,38.31,66.37-38.31Z"/>
        <path class="cls-4" d="M525.05,515.15l68.71,39.67v79.34l-68.71,39.67-68.71-39.67V554.82Zm66.37,41-66.37-38.32-66.36,38.32v76.64l66.36,38.31,66.37-38.31Z"/>
      </g>
      <g class="cls-3">
        <path class="cls-4" d="M2215.91,171.72l-68.71-39.67V52.71L2215.91,13l68.71,39.67v79.34Zm-66.37-41L2215.91,169l66.37-38.31V54.06l-66.37-38.31-66.37,38.31Z"/>
        <path class="cls-4" d="M2351,171.72l-68.71-39.67V52.71L2351,13l68.71,39.67v79.34Zm-66.37-41L2351,169l66.37-38.31V54.06L2351,15.75l-66.37,38.31Z"/>
        <path class="cls-4" d="M2486.07,171.72l-68.71-39.67V52.71L2486.07,13l68.71,39.67v79.34Zm-66.37-41L2486.07,169l66.36-38.31V54.06l-66.36-38.31L2419.7,54.06Z"/>
        <path class="cls-4" d="M1878.21,288.7,1809.5,249V169.69L1878.21,130l68.72,39.67V249Zm-66.36-41L1878.21,286l66.37-38.32V171.05l-66.37-38.32-66.36,38.32Z"/>
        <path class="cls-4" d="M2013.29,288.7,1944.58,249V169.69L2013.29,130,2082,169.69V249Zm-66.36-41L2013.29,286l66.37-38.32V171.05l-66.37-38.32-66.36,38.32Z"/>
        <path class="cls-4" d="M2148.37,288.7,2079.66,249V169.69L2148.37,130l68.71,39.67V249Zm-66.37-41L2148.37,286l66.37-38.32V171.05l-66.37-38.32L2082,171.05Z"/>
        <path class="cls-4" d="M2283.45,288.7,2214.74,249V169.69L2283.45,130l68.71,39.67V249Zm-66.37-41L2283.45,286l66.37-38.32V171.05l-66.37-38.32-66.37,38.32Z"/>
        <path class="cls-4" d="M2418.53,288.7,2349.82,249V169.69L2418.53,130l68.71,39.67V249Zm-66.37-41L2418.53,286l66.36-38.32V171.05l-66.36-38.32-66.37,38.32Z"/>
        <path class="cls-4" d="M1945.75,405.69,1877,366V286.67L1945.75,247l68.71,39.67V366Zm-66.36-41L1945.75,403l66.37-38.32V288l-66.37-38.32L1879.39,288Z"/>
        <path class="cls-4" d="M2080.83,405.69,2012.12,366V286.67L2080.83,247l68.71,39.67V366Zm-66.37-41L2080.83,403l66.37-38.32V288l-66.37-38.32L2014.46,288Z"/>
        <path class="cls-4" d="M2351,405.69,2282.28,366V286.67L2351,247l68.71,39.67V366Zm-66.37-41L2351,403l66.37-38.32V288L2351,249.71,2284.62,288Z"/>
        <path class="cls-4" d="M2013.29,522.67,1944.58,483V403.66L2013.29,364,2082,403.66V483Zm-66.36-41L2013.29,520l66.37-38.32V405l-66.37-38.32L1946.93,405Z"/>
      </g>
    </g>
  </g>
</svg>
